# AST/ASF file generated using VICON BodyLanguage
# -----------------------------------------------
:version 1.10
:name VICON
:units
  mass 1.0
  length 0.45
  angle deg
:documentation
   .ast/.asf automatically generated from VICON data using
   VICON BodyBuilder and BodyLanguage model FoxedUp or BRILLIANT.MOD
:root
   order TX TY TZ RX RY RZ
   axis XYZ
   position 0 0 0  
   orientation 0 0 0 
:bonedata
  begin
     id 1 
     name lhipjoint
     direction 0.521452 -0.77106 0.36545 
     length 2.0933 
     axis 0 0 0  XYZ
  end
  begin
     id 2 
     name lfemur
     direction 0.34202 -0.939693 0  
     length 6.83441  
     axis 0 0 20  XYZ
    dof rx ry rz
    limits (-160.0 20.0)
           (-70.0 70.0)
           (-60.0 70.0)
  end
  begin
     id 3 
     name ltibia
     direction 0.34202 -0.939693 0   
     length 7.28749   
     axis 0 0 20   XYZ
    dof rx
    limits (-10.0 170.0)
  end
  begin
     id 4 
     name lfoot
     direction 0.100608 -0.276418 0.955757   
     length 1.52195   
     axis -90 7.62852e-016 20   XYZ
    dof rx rz
    limits (-45.0 90.0)
           (-70.0 20.0)
  end
  begin
     id 5 
     name ltoes
     direction 1.53558e-011 -4.21907e-011 1   
     length 0.770459   
     axis -90 7.62852e-016 20   XYZ
    dof rx
    limits (-90.0 20.0)
  end
  begin
     id 6 
     name rhipjoint
     direction -0.488071 -0.788702 0.373812   
     length 2.04648  
     axis 0 0 0  XYZ 
  end
  begin
     id 7 
     name rfemur
     direction -0.34202 -0.939693 0   
     length 6.92583   
     axis 0 0 -20   XYZ
    dof rx ry rz
    limits (-160.0 20.0)
           (-70.0 70.0)
           (-70.0 60.0)
  end
  begin
     id 8 
     name rtibia
     direction -0.34202 -0.939693 0   
     length 7.41043   
     axis 0 0 -20   XYZ
    dof rx
    limits (-10.0 170.0)
 end
 begin
     id 9 
     name rfoot
     direction -0.0784433 -0.215521 0.973343   
     length 1.67708  
     axis -90 -7.62852e-016 -20   XYZ
    dof rx rz
    limits (-45.0 90.0)
           (-20.0 70.0)
  end
  begin
     id 10 
     name rtoes
     direction -1.53551e-011 -4.21842e-011 1   
     length 0.849787   
     axis -90 -7.62852e-016 -20   XYZ
    dof rx
    limits (-90.0 20.0)
  end
  begin
     id 11 
     name lowerback
     direction -0.0122332 0.997575 -0.0685192   
     length 1.98724   
     axis 0 0 0   XYZ
    dof rx ry rz
    limits (-20.0 45.0)
           (-30.0 30.0)
           (-30.0 30.0)
  end
  begin
     id 12 
     name upperback
     direction 0.0182347 0.999724 -0.0148421   
     length 1.99029   
     axis 0 0 0   XYZ
    dof rx ry rz
    limits (-20.0 45.0)
           (-30.0 30.0)
           (-30.0 30.0)
  end
  begin
     id 13 
     name thorax
     direction 0.0242908 0.99956 0.0170184   
     length 1.99573   
     axis 0 0 0   XYZ
    dof rx ry rz
    limits (-20.0 45.0)
           (-30.0 30.0)
           (-30.0 30.0)
  end
  begin
     id 14 
     name lowerneck
     direction 0.0654488 0.985533 0.156338   
     length 1.4285   
     axis 0 0 0   XYZ
    dof rx ry rz
    limits (-20.0 45.0)
           (-30.0 30.0)
           (-30.0 30.0)
  end
  begin
     id 15 
     name upperneck
     direction -0.02953 0.998556 -0.0448842   
     length 1.44709   
     axis 0 0 0   XYZ
    dof rx ry rz
    limits (-20.0 45.0)
           (-30.0 30.0)
           (-30.0 30.0)
  end
  begin
     id 16
     name head
     direction -0.0155588 0.999386 -0.0314063  
     length 1.44689  
     axis 0 0 0   XYZ
    dof rx ry rz
    limits (-20.0 45.0)
           (-30.0 30.0)
           (-30.0 30.0)
  end
  begin
     id 17 
     name lclavicle
     direction 0.968229 0.236071 -0.0824755  
     length 3.60593  
     axis 0 0 0   XYZ
    dof ry rz
    limits (-20.0 10.0)
           (0.0 20.0)
  end
  begin
     id 18 
     name lhumerus
     direction 1 -4.48968e-011 7.8138e-029   
     length 5.06035   
     axis 180 -30 -90   XYZ
    dof rx ry rz
    limits (-60.0 90.0)
           (-90.0 90.0)
           (-90.0 90.0)
  end
  begin
     id 19
     name lradius
     direction 1 -4.48967e-011 9.02887e-028   
     length 3.1478   
     axis 180 -30 -90   XYZ
    dof rx
    limits (-10.0 170.0)
  end
  begin
     id 20
     name lwrist
     direction 1 -4.48961e-011 7.20928e-028   
     length 1.5739   
     axis -5.52449e-016 90 90   XYZ
    dof ry
    limits (-180.0 0.0)
 end
  begin
     id 21 
     name lhand
     direction 1 -4.48972e-011 1.44186e-027   
     length 0.606747   
     axis -9.20027e-016 90 90   XYZ
    dof rx rz
    limits (-90.0 90.0)
           (-45.0 45.0)
  end
  begin
     id 22 
     name lfingers
     direction 1 -4.48943e-011 2.88371e-027   
     length 0.489175   
     axis -1.84005e-015 90 90   XYZ
    dof rx
    limits (0.0 90.0)
  end
  begin
     id 23
     name lthumb
     direction 0.707107 -6.34917e-011 0.707107   
     length 0.70236   
     axis -90 45 2.85299e-015   XYZ
    dof rx rz
    limits (-45.0 45.0)
           (-45.0 45.0)
  end
  begin
     id 24 
     name rclavicle
     direction -0.978165 0.207816 0.0022268   
     length 3.35425  
     axis 0 0 0   XYZ 
    dof ry rz
    limits (-10.0 20.0)
           (-20.0 0.0)
  end
  begin
     id 25 
     name rhumerus
     direction -1 -4.48964e-011 -4.02159e-027  
     length 5.12273   
     axis 180 30 90   XYZ
    dof rx ry rz
    limits (-90.0 60.0)
           (-90.0 90.0)
           (-90.0 90.0)
  end
  begin
     id 26 
     name rradius
     direction -1 -4.48966e-011 1.62746e-027   
     length 3.422   
     axis 180 30 90   XYZ
    dof rx
    limits (-10.0 170.0)
  end
  begin
     id 27 
     name rwrist
     direction -1 -4.4896e-011 7.20928e-028   
     length 1.711   
     axis -5.52449e-016 -90 -90   XYZ
    dof ry
    limits (-180.0 0.0)
  end
  begin
     id 28
     name rhand
     direction -1 -4.48979e-011 1.44186e-027   
     length 0.704599   
     axis -9.20027e-016 -90 -90   XYZ
    dof rx rz
    limits (-90.0 90.0)
           (-45.0 45.0)
  end
  begin
     id 29
     name rfingers
     direction -1 -4.48962e-011 2.88371e-027   
     length 0.568066   
     axis -1.84005e-015 -90 -90   XYZ
    dof rx
    limits (0.0 90.0)
  end
  begin
     id 30
     name rthumb
     direction -0.707107 -6.34949e-011 0.707107   
     length 0.815633   
     axis -90 -45 -2.85299e-015   XYZ
    dof rx rz
    limits (-45.0 45.0)
           (-45.0 45.0)
  end
:hierarchy
  begin
    root lhipjoint rhipjoint lowerback
    lhipjoint lfemur
    lfemur ltibia
    ltibia lfoot
    lfoot ltoes
    rhipjoint rfemur
    rfemur rtibia
    rtibia rfoot
    rfoot rtoes
    lowerback upperback
    upperback thorax
    thorax lowerneck lclavicle rclavicle
    lowerneck upperneck
    upperneck head
    lclavicle lhumerus
    lhumerus lradius
    lradius lwrist
    lwrist lhand lthumb
    lhand lfingers
    rclavicle rhumerus
    rhumerus rradius
    rradius rwrist
    rwrist rhand rthumb
    rhand rfingers
  end

#!OML:ASF E:\id_vita\Project 1\Capture day 1\Session 1\Male1.ASF
:FULLY-SPECIFIED
:DEGREES
80
root -15.863 15.8467 0.194778 266.715 85.7305 263.368
lowerback -1.72694 0.598744 3.34985
upperback 1.32227 0.697934 1.02996
thorax 2.35391 0.400356 -0.792789
lowerneck -13.777 1.4473 2.29284
upperneck 7.64244 1.52811 -0.0915686
head 4.54577 0.816869 -0.277905
rclavicle -7.67806e-015 9.24349e-015
rhumerus -16.6345 -2.97045 -87.6263
rradius 34.645
rwrist -3.64151
rhand -22.5933 35.9379
rfingers 7.12502
rthumb 3.8358 5.99267
lclavicle -7.67806e-015 9.24349e-015
lhumerus -58.7452 48.2702 39.893
lradius 7.01296
lwrist -41.2189
lhand -11.5297 47.8734
lfingers 7.12502
lthumb 14.5102 77.346
rfemur 3.009 0.118928 28.1593
rtibia 17.8747
rfoot -20.5218 -8.75257
rtoes -3.86139
lfemur -35.3519 2.79404 -16.8132
ltibia 36.6641
lfoot -13.9046 -4.67609
ltoes 47.1414
81
root -15.6579 15.8354 0.187154 265.011 85.394 261.515
lowerback -2.01078 0.592956 3.60716
upperback 1.30653 0.668849 1.17213
thorax 2.49813 0.391608 -0.788693
lowerneck -13.4925 1.39999 2.3012
upperneck 7.43305 1.50376 -0.401695
head 4.43694 0.784227 -0.379799
rclavicle 1.05604e-016 -1.09332e-014
rhumerus -15.6133 -3.01895 -87.4881
rradius 35.1166
rwrist -3.95283
rhand -22.7697 35.9601
rfingers 7.12502
rthumb 3.66553 6.01187
lclavicle 1.05604e-016 -1.09332e-014
lhumerus -60.9029 47.9614 37.7732
lradius 7.31561
lwrist -41.8872
lhand -11.2462 47.8267
lfingers 7.12502
lthumb 14.7834 77.2795
rfemur 4.71018 -0.4254 28.4424
rtibia 15.7382
rfoot -20.0745 -8.34799
rtoes -3.37582
lfemur -36.0341 1.90047 -16.18
ltibia 34.087
lfoot -13.384 -3.52628
ltoes 47.402
82
root -15.4532 15.8224 0.179106 267.4 84.7306 263.737
lowerback -2.22909 0.683178 4.57776
upperback 1.17492 0.752701 1.17914
thorax 2.50352 0.448957 -1.31856
lowerneck -13.0996 1.39215 2.42919
upperneck 7.40625 1.50016 -0.593588
head 4.3675 0.774382 -0.46251
rclavicle 6.88292e-015 7.45443e-015
rhumerus -14.7923 -3.35501 -87.6796
rradius 35.6057
rwrist -3.86953
rhand -22.7104 35.6053
rfingers 7.12502
rthumb 3.72279 5.65812
lclavicle 6.88292e-015 7.45443e-015
lhumerus -62.8406 47.5976 35.514
lradius 7.42261
lwrist -42.4747
lhand -11.2139 48.1243
lfingers 7.12502
lthumb 14.8144 77.5747
rfemur 6.43122 -0.890889 29.0789
rtibia 13.3789
rfoot -19.5501 -7.75302
rtoes -4.04204
lfemur -36.7459 1.07231 -14.9599
ltibia 31.7156
lfoot -12.7811 -2.27049
ltoes 48.3215
83
root -15.2473 15.8093 0.166967 272.254 84.424 268.334
lowerback -2.51391 0.815525 4.85519
upperback 1.0538 0.905343 1.37279
thorax 2.5494 0.528391 -1.26424
lowerneck -12.8135 1.45825 2.15674
upperneck 7.29281 1.65665 -0.730239
head 4.28726 0.834813 -0.45135
rclavicle 5.32991e-015 -4.47266e-015
rhumerus -13.8078 -3.28475 -87.528
rradius 35.9644
rwrist -3.9831
rhand -22.5112 35.8911
rfingers 7.12502
rthumb 3.91512 5.94732
lclavicle 5.32991e-015 -4.47266e-015
lhumerus -64.998 47.5438 33.42
lradius 7.48246
lwrist -42.9963
lhand -11.2481 48.1524
lfingers 7.12502
lthumb 14.7815 77.6053
rfemur 8.5431 -1.21276 29.2241
rtibia 10.0139
rfoot -18.5907 -6.82728
rtoes -5.45903
lfemur -37.5167 0.0306844 -13.9215
ltibia 29.7076
lfoot -12.5032 -0.666086
ltoes 49.0884
84
root -15.0393 15.8027 0.154773 279.797 84.2878 275.598
lowerback -2.9594 1.09712 4.67136
upperback 1.03813 1.25689 1.65739
thorax 2.79376 0.703888 -0.842446
lowerneck -12.481 1.41933 1.90149
upperneck 6.86947 1.68657 -1.05821
head 4.10412 0.822933 -0.512542
rclavicle 1.42729e-014 2.1183e-014
rhumerus -12.6741 -3.13897 -87.082
rradius 36.2113
rwrist -4.31607
rhand -22.4052 36.2902
rfingers 7.12502
rthumb 4.01752 6.34834
lclavicle 1.42729e-014 2.1183e-014
lhumerus -67.0344 47.4896 31.7081
lradius 7.66375
lwrist -43.3942
lhand -11.1047 47.8515
lfingers 7.12502
lthumb 14.9196 77.2942
rfemur 11.5224 -0.581599 29.1938
rtibia 4.8733
rfoot -16.5317 -5.84556
rtoes -5.7709
lfemur -38.2544 -1.82463 -12.4897
ltibia 27.9722
lfoot -12.825 1.79931
ltoes 50.1292
85
root -14.8301 15.7969 0.145643 287.685 83.815 283.26
lowerback -3.30413 1.44467 5.4735
upperback 0.9831 1.67024 1.35416
thorax 2.98616 0.928295 -1.56967
lowerneck -12.2036 1.39564 2.49784
upperneck 6.30391 1.57941 -1.2551
head 4.33532 0.779885 -0.756872
rclavicle 1.62134e-015 -1.39149e-015
rhumerus -11.6743 -3.61057 -87.606
rradius 36.4077
rwrist -4.26296
rhand -22.5275 36.1237
rfingers 7.12502
rthumb 3.89936 6.17968
lclavicle 1.62134e-015 -1.39149e-015
lhumerus -68.583 46.9891 29.4169
lradius 7.96531
lwrist -43.6413
lhand -10.9058 47.4641
lfingers 7.12502
lthumb 15.1112 76.8925
rfemur 14.4278 0.181862 29.4725
rtibia 2.8625e-014
rfoot -14.5383 -4.91011
rtoes -6.0344
lfemur -38.9503 -4.68502 -10.0138
ltibia 26.4793
lfoot -14.0366 5.37093
ltoes 50.8689
86
root -14.6173 15.7818 0.135754 290.839 83.3176 286.282
lowerback -3.56765 1.63069 5.6471
upperback 0.891169 1.89297 1.63458
thorax 3.05117 1.04173 -1.35684
lowerneck -11.8878 1.40826 2.40236
upperneck 6.30415 1.64696 -1.55513
head 4.27581 0.795614 -0.837226
rclavicle -5.37961e-015 1.71949e-014
rhumerus -10.8418 -3.41312 -87.2842
rradius 36.5988
rwrist -4.37109
rhand -22.6945 35.978
rfingers 7.12502
rthumb 3.73815 6.03105
lclavicle -5.37961e-015 1.71949e-014
lhumerus -70.6506 46.607 27.503
lradius 8.26252
lwrist -43.8704
lhand -10.8761 47.5124
lfingers 7.12502
lthumb 15.1398 76.9386
rfemur 15.1007 0.530979 29.8393
rtibia 2.8625e-014
rfoot -14.7975 -5.18258
rtoes -6.89744
lfemur -39.6739 -7.91785 -7.31702
ltibia 25.2111
lfoot -15.4989 9.23824
ltoes 50.2924
